<svg width="85" height="85" viewBox="0 0 85 85" fill="none" xmlns="http://www.w3.org/2000/svg">
<path d="M85 42.5C85 53.7717 80.5223 64.5817 72.552 72.552C64.5817 80.5223 53.7717 85 42.5 85C31.2283 85 20.4183 80.5223 12.448 72.552C4.47767 64.5817 0 53.7717 0 42.5C0 31.2283 4.47767 20.4183 12.448 12.448C20.4183 4.47767 31.2283 0 42.5 0C53.7717 0 64.5817 4.47767 72.552 12.448C80.5223 20.4183 85 31.2283 85 42.5V42.5ZM42.5 18.5938C42.5 17.8893 42.2201 17.2136 41.722 16.7155C41.2239 16.2174 40.5482 15.9375 39.8438 15.9375C39.1393 15.9375 38.4636 16.2174 37.9655 16.7155C37.4674 17.2136 37.1875 17.8893 37.1875 18.5938V47.8125C37.1877 48.2807 37.3116 48.7405 37.5467 49.1454C37.7818 49.5503 38.1197 49.8859 38.5262 50.1181L57.12 60.7431C57.7302 61.0729 58.4452 61.1509 59.1121 60.9605C59.7791 60.7701 60.3451 60.3264 60.6892 59.7242C61.0333 59.122 61.1282 58.409 60.9537 57.7378C60.7791 57.0665 60.3489 56.4901 59.755 56.1319L42.5 46.2719V18.5938Z" fill="black"/>
</svg>
