<svg width="85" height="85" viewBox="0 0 85 85" fill="none" xmlns="http://www.w3.org/2000/svg">
<path fill-rule="evenodd" clip-rule="evenodd" d="M42.5 17.4941L74.375 49.3691V71.7188C74.375 73.8322 73.5354 75.8591 72.041 77.3535C70.5466 78.8479 68.5197 79.6875 66.4062 79.6875H18.5938C16.4803 79.6875 14.4534 78.8479 12.959 77.3535C11.4646 75.8591 10.625 73.8322 10.625 71.7188V49.3691L42.5 17.4941V17.4941ZM69.0625 13.2812V31.875L58.4375 21.25V13.2812C58.4375 12.5768 58.7174 11.9011 59.2155 11.403C59.7136 10.9049 60.3893 10.625 61.0938 10.625H66.4062C67.1107 10.625 67.7864 10.9049 68.2845 11.403C68.7826 11.9011 69.0625 12.5768 69.0625 13.2812Z" fill="white"/>
<path fill-rule="evenodd" clip-rule="evenodd" d="M38.7441 7.96851C39.7404 6.97257 41.0914 6.41309 42.5001 6.41309C43.9087 6.41309 45.2598 6.97257 46.256 7.96851L81.5682 43.2754C82.067 43.7742 82.3472 44.4507 82.3472 45.156C82.3472 45.8614 82.067 46.5379 81.5682 47.0367C81.0694 47.5354 80.3929 47.8156 79.6876 47.8156C78.9822 47.8156 78.3057 47.5354 77.8069 47.0367L42.5001 11.7245L7.19318 47.0367C6.69441 47.5354 6.01793 47.8156 5.31256 47.8156C4.60719 47.8156 3.93071 47.5354 3.43193 47.0367C2.93316 46.5379 2.65295 45.8614 2.65295 45.156C2.65295 44.4507 2.93316 43.7742 3.43193 43.2754L38.7441 7.96851Z" fill="white"/>
</svg>
