<svg width="85" height="85" viewBox="0 0 85 85" fill="none" xmlns="http://www.w3.org/2000/svg">
<path d="M29.2188 37.1875C28.5143 37.1875 27.8386 37.4674 27.3405 37.9655C26.8424 38.4636 26.5625 39.1393 26.5625 39.8438C26.5625 40.5482 26.8424 41.2239 27.3405 41.722C27.8386 42.2201 28.5143 42.5 29.2188 42.5H55.7813C56.4857 42.5 57.1614 42.2201 57.6595 41.722C58.1577 41.2239 58.4375 40.5482 58.4375 39.8438C58.4375 39.1393 58.1577 38.4636 57.6595 37.9655C57.1614 37.4674 56.4857 37.1875 55.7813 37.1875H29.2188ZM26.5625 50.4688C26.5625 49.7643 26.8424 49.0886 27.3405 48.5905C27.8386 48.0924 28.5143 47.8125 29.2188 47.8125H55.7813C56.4857 47.8125 57.1614 48.0924 57.6595 48.5905C58.1577 49.0886 58.4375 49.7643 58.4375 50.4688C58.4375 51.1732 58.1577 51.8489 57.6595 52.347C57.1614 52.8451 56.4857 53.125 55.7813 53.125H29.2188C28.5143 53.125 27.8386 52.8451 27.3405 52.347C26.8424 51.8489 26.5625 51.1732 26.5625 50.4688ZM26.5625 61.0938C26.5625 60.3893 26.8424 59.7136 27.3405 59.2155C27.8386 58.7174 28.5143 58.4375 29.2188 58.4375H39.8438C40.5482 58.4375 41.2239 58.7174 41.722 59.2155C42.2201 59.7136 42.5 60.3893 42.5 61.0938C42.5 61.7982 42.2201 62.4739 41.722 62.972C41.2239 63.4701 40.5482 63.75 39.8438 63.75H29.2188C28.5143 63.75 27.8386 63.4701 27.3405 62.972C26.8424 62.4739 26.5625 61.7982 26.5625 61.0938Z" fill="black"/>
<path d="M50.4688 0H21.25C18.4321 0 15.7296 1.11942 13.737 3.11199C11.7444 5.10456 10.625 7.80707 10.625 10.625V74.375C10.625 77.1929 11.7444 79.8954 13.737 81.888C15.7296 83.8806 18.4321 85 21.25 85H63.75C66.5679 85 69.2704 83.8806 71.263 81.888C73.2556 79.8954 74.375 77.1929 74.375 74.375V23.9062L50.4688 0ZM50.4688 5.3125V15.9375C50.4688 18.0509 51.3083 20.0778 52.8027 21.5723C54.2972 23.0667 56.3241 23.9062 58.4375 23.9062H69.0625V74.375C69.0625 75.784 68.5028 77.1352 67.5065 78.1315C66.5102 79.1278 65.159 79.6875 63.75 79.6875H21.25C19.841 79.6875 18.4898 79.1278 17.4935 78.1315C16.4972 77.1352 15.9375 75.784 15.9375 74.375V10.625C15.9375 9.21604 16.4972 7.86478 17.4935 6.86849C18.4898 5.87221 19.841 5.3125 21.25 5.3125H50.4688Z" fill="black"/>
</svg>
