<svg width="190" height="200" viewBox="0 0 190 200" fill="none" xmlns="http://www.w3.org/2000/svg">
<path fill-rule="evenodd" clip-rule="evenodd" d="M95 41.1625L166.25 116.163V168.75C166.25 173.723 164.373 178.492 161.033 182.008C157.692 185.525 153.162 187.5 148.438 187.5H41.5625C36.8383 187.5 32.3077 185.525 28.9672 182.008C25.6267 178.492 23.75 173.723 23.75 168.75V116.163L95 41.1625V41.1625ZM154.375 31.25V75L130.625 50V31.25C130.625 29.5924 131.251 28.0027 132.364 26.8306C133.478 25.6585 134.988 25 136.562 25H148.438C150.012 25 151.522 25.6585 152.636 26.8306C153.749 28.0027 154.375 29.5924 154.375 31.25Z" fill="white"/>
<path fill-rule="evenodd" clip-rule="evenodd" d="M86.6046 18.7492C88.8315 16.4058 91.8514 15.0894 95.0002 15.0894C98.1491 15.0894 101.169 16.4058 103.396 18.7492L182.329 101.824C183.444 102.998 184.07 104.59 184.07 106.249C184.07 107.909 183.444 109.501 182.329 110.674C181.214 111.848 179.702 112.507 178.125 112.507C176.549 112.507 175.036 111.848 173.921 110.674L95.0002 27.5867L16.079 110.674C14.9641 111.848 13.4519 112.507 11.8752 112.507C10.2985 112.507 8.78639 111.848 7.67149 110.674C6.55658 109.501 5.93024 107.909 5.93024 106.249C5.93024 104.59 6.55658 102.998 7.67149 101.824L86.6046 18.7492Z" fill="white"/>
</svg>
