<svg width="85" height="85" viewBox="0 0 85 85" fill="none" xmlns="http://www.w3.org/2000/svg">
<path d="M37.1875 74.375C37.1875 74.375 31.875 74.375 31.875 69.0625C31.875 63.75 37.1875 47.8125 58.4375 47.8125C79.6875 47.8125 85 63.75 85 69.0625C85 74.375 79.6875 74.375 79.6875 74.375H37.1875ZM58.4375 42.5C62.6644 42.5 66.7182 40.8209 69.707 37.832C72.6959 34.8432 74.375 30.7894 74.375 26.5625C74.375 22.3356 72.6959 18.2818 69.707 15.293C66.7182 12.3041 62.6644 10.625 58.4375 10.625C54.2106 10.625 50.1568 12.3041 47.168 15.293C44.1791 18.2818 42.5 22.3356 42.5 26.5625C42.5 30.7894 44.1791 34.8432 47.168 37.832C50.1568 40.8209 54.2106 42.5 58.4375 42.5V42.5Z" fill="black"/>
<path fill-rule="evenodd" clip-rule="evenodd" d="M27.71 74.3747C26.9224 72.7162 26.5297 70.8979 26.5625 69.0622C26.5625 61.8638 30.175 54.4528 36.8475 49.2997C33.517 48.2735 30.0472 47.7717 26.5625 47.8122C5.3125 47.8122 0 63.7497 0 69.0622C0 74.3747 5.3125 74.3747 5.3125 74.3747H27.71Z" fill="black"/>
<path d="M23.9062 42.5C27.4287 42.5 30.8068 41.1007 33.2975 38.61C35.7882 36.1193 37.1875 32.7412 37.1875 29.2188C37.1875 25.6963 35.7882 22.3182 33.2975 19.8275C30.8068 17.3368 27.4287 15.9375 23.9062 15.9375C20.3838 15.9375 17.0057 17.3368 14.515 19.8275C12.0243 22.3182 10.625 25.6963 10.625 29.2188C10.625 32.7412 12.0243 36.1193 14.515 38.61C17.0057 41.1007 20.3838 42.5 23.9062 42.5V42.5Z" fill="black"/>
</svg>
