<svg width="85" height="85" viewBox="0 0 85 85" fill="none" xmlns="http://www.w3.org/2000/svg">
<g clip-path="url(#clip0)">
<path d="M34.5313 10.625C33.8268 10.625 33.1511 10.9049 32.653 11.403C32.1549 11.9011 31.875 12.5768 31.875 13.2812C31.875 13.9857 32.1549 14.6614 32.653 15.1595C33.1511 15.6576 33.8268 15.9375 34.5313 15.9375H50.4688C51.1732 15.9375 51.8489 15.6576 52.347 15.1595C52.8452 14.6614 53.125 13.9857 53.125 13.2812C53.125 12.5768 52.8452 11.9011 52.347 11.403C51.8489 10.9049 51.1732 10.625 50.4688 10.625H34.5313ZM58.4375 42.5C58.4375 46.7269 56.7584 50.7807 53.7695 53.7695C50.7807 56.7584 46.7269 58.4375 42.5 58.4375C38.2731 58.4375 34.2193 56.7584 31.2305 53.7695C28.2416 50.7807 26.5625 46.7269 26.5625 42.5C26.5625 38.2731 28.2416 34.2193 31.2305 31.2305C34.2193 28.2416 38.2731 26.5625 42.5 26.5625C46.7269 26.5625 50.7807 28.2416 53.7695 31.2305C56.7584 34.2193 58.4375 38.2731 58.4375 42.5V42.5Z" fill="black"/>
<path d="M23.9062 0C20.3838 0 17.0057 1.39927 14.515 3.88999C12.0243 6.38071 10.625 9.75884 10.625 13.2812V74.375C10.625 77.1929 11.7444 79.8954 13.737 81.888C15.7296 83.8806 18.4321 85 21.25 85H63.75C66.5679 85 69.2704 83.8806 71.263 81.888C73.2556 79.8954 74.375 77.1929 74.375 74.375V13.2812C74.375 9.75884 72.9757 6.38071 70.485 3.88999C67.9943 1.39927 64.6162 0 61.0938 0L23.9062 0ZM15.9375 13.2812C15.9375 11.1678 16.7771 9.14092 18.2715 7.64649C19.7659 6.15206 21.7928 5.3125 23.9062 5.3125H61.0938C63.2072 5.3125 65.2341 6.15206 66.7285 7.64649C68.2229 9.14092 69.0625 11.1678 69.0625 13.2812V70.6297C67.7881 69.6103 66.4056 68.7338 64.94 68.0159C60.52 65.8059 53.4597 63.75 42.5 63.75C31.5403 63.75 24.48 65.8059 20.06 68.0159C18.5944 68.7338 17.2119 69.6103 15.9375 70.6297V13.2812Z" fill="black"/>
</g>
<defs>
<clipPath id="clip0">
<rect width="85" height="85" fill="white"/>
</clipPath>
</defs>
</svg>
